# 3ds Max Wavefront OBJ Exporter v0.99 - (c)2007 guruware
# File Created: 11.05.2022 17:50:22

mtllib Barn.mtl

#
# object Barn
#

v  -141.9705 0.0000 -101.5089
v  -141.9705 0.0000 -106.4779
v  -137.0015 0.0000 -106.4779
v  137.0015 0.0000 -106.4778
v  141.9705 0.0000 -106.4778
v  141.9705 0.0000 -101.5089
v  141.9705 0.0000 -53.2389
v  -141.9705 0.0000 -53.2389
v  141.9705 0.0000 0.0000
v  -141.9705 0.0000 -0.0000
v  141.9705 0.0000 53.2389
v  -141.9705 0.0000 53.2389
v  141.9705 0.0000 101.5089
v  141.9705 0.0000 106.4779
v  137.0015 0.0000 106.4779
v  -137.0015 0.0000 106.4778
v  -141.9705 0.0000 106.4778
v  -141.9705 0.0000 101.5089
v  -137.0015 179.4970 -103.2359
v  -137.0015 237.5699 -53.2389
v  137.0015 237.5699 -53.2389
v  137.0015 179.4970 -103.2358
v  -137.0015 260.4967 -0.0000
v  137.0015 260.4967 0.0000
v  -137.0015 237.5699 53.2389
v  137.0015 237.5699 53.2389
v  -137.0015 179.4970 103.2358
v  137.0015 179.4970 103.2359
v  -141.9705 233.4594 -50.2210
v  -141.9705 173.8871 -101.5089
v  -141.9705 255.0866 -0.0000
v  -141.9705 233.4594 50.2210
v  -141.9705 173.8871 101.5089
v  137.0015 170.7624 106.4779
v  -137.0015 170.7624 106.4778
v  141.9705 233.4594 50.2210
v  141.9705 173.8871 101.5089
v  141.9705 255.0866 0.0000
v  141.9705 233.4594 -50.2210
v  141.9705 173.8871 -101.5089
v  -137.0015 170.7624 -106.4779
v  137.0015 170.7624 -106.4778
v  -137.0015 180.8864 -104.8497
v  -137.0015 176.5218 -108.6074
v  -144.8438 176.5218 -108.6074
v  -144.1000 180.6731 -104.6020
v  137.0015 180.8865 -104.8497
v  144.1000 180.6732 -104.6020
v  144.8439 176.5218 -108.6074
v  137.0015 176.5218 -108.6074
v  -137.0015 180.8864 104.8497
v  -144.1000 180.6731 104.6019
v  -144.8439 176.5218 108.6074
v  -137.0015 176.5218 108.6074
v  137.0015 180.8865 104.8497
v  137.0015 176.5218 108.6074
v  144.8438 176.5218 108.6074
v  144.1000 180.6732 104.6020
v  -144.1000 173.8871 -101.5089
v  -144.1000 170.7624 -108.2806
v  -144.1000 173.8871 101.5089
v  -144.1000 170.7624 108.2806
v  137.0015 170.7624 108.6074
v  144.1000 170.7624 108.2806
v  -137.0015 170.7624 108.6074
v  144.1000 173.8871 101.5089
v  144.1000 173.8871 -101.5089
v  144.1000 170.7624 -108.2806
v  -137.0015 170.7624 -108.6074
v  137.0015 170.7624 -108.6074
v  -137.0015 239.3316 -54.5323
v  -144.1000 239.4745 -54.6373
v  137.0015 239.3316 -54.5323
v  144.1000 239.4746 -54.6373
v  -137.0015 262.8153 -0.0000
v  -144.0075 262.8153 -0.0000
v  137.0015 262.8153 0.0000
v  144.0075 262.8153 0.0000
v  -137.0015 239.3316 54.5323
v  -144.1000 239.4745 54.6372
v  137.0015 239.3316 54.5323
v  144.1000 239.4746 54.6373
v  -144.1000 233.4594 -50.2210
v  -144.1000 0.0000 -101.5089
v  -144.1000 0.0000 -108.6074
v  -144.1000 255.0866 -0.0000
v  -144.1000 233.4594 50.2210
v  -144.1000 0.0000 101.5089
v  -144.1000 0.0000 108.6074
v  137.0015 0.0000 108.6074
v  144.1000 0.0000 108.6074
v  -137.0015 0.0000 108.6074
v  144.1000 233.4594 50.2210
v  144.1000 0.0000 101.5089
v  144.1000 255.0866 0.0000
v  144.1000 233.4594 -50.2210
v  144.1000 0.0000 -101.5089
v  144.1000 0.0000 -108.6074
v  -137.0015 0.0000 -108.6074
v  137.0015 0.0000 -108.6074
v  22.3077 233.5043 -21.6583
v  22.3077 273.1847 -21.6583
v  22.3077 288.2639 -0.6137
v  22.3077 248.5835 -0.6137
v  -20.8216 233.5043 -21.6583
v  -20.8216 248.5835 -0.6137
v  -20.8216 288.2639 -0.6137
v  -20.8216 273.1847 -21.6583
v  22.3077 274.3676 -21.6583
v  -20.8216 274.3676 -21.6583
v  22.3077 289.4468 -0.6137
v  -20.8216 289.4467 -0.6137
v  -24.3709 275.6463 -29.6093
v  -24.3709 296.5453 -0.6137
v  25.8569 296.5453 -0.6137
v  25.8569 275.6463 -29.6093
v  25.8570 268.5478 -29.6093
v  25.8569 289.4468 -0.6137
v  -24.3709 268.5478 -29.6093
v  -24.3709 289.4467 -0.6137
v  22.3077 233.5043 20.4309
v  22.3077 273.1847 20.4309
v  -20.8216 233.5043 20.4309
v  -20.8216 273.1847 20.4309
v  22.3077 274.3676 20.4309
v  -20.8216 274.3676 20.4309
v  -24.3709 275.6463 28.3819
v  25.8569 275.6463 28.3819
v  25.8569 268.5478 28.3819
v  -24.3709 268.5478 28.3819
v  -129.3707 217.3643 -21.8476
v  -129.3707 169.4928 -21.8476
v  -143.7806 169.4928 -21.8476
v  -143.7806 217.3642 -21.8476
v  -129.3707 217.3643 21.7738
v  -143.7806 217.3642 21.7738
v  -129.3707 169.4928 21.7738
v  -142.2979 172.4144 19.2642
v  -142.2979 214.4426 19.2642
v  -142.2979 214.4426 -19.3381
v  -142.2979 172.4144 -19.3381
v  -143.7806 169.4928 21.7738
v  -143.7806 214.4426 19.2642
v  -143.7806 172.4144 19.2642
v  -143.7806 214.4426 -19.3381
v  -143.7806 172.4144 -19.3381
v  -124.5814 137.3169 -60.0829
v  -124.5814 68.9871 -60.0829
v  -145.2784 68.9871 -60.0829
v  -145.2784 137.3169 -60.0829
v  -124.5814 137.3169 2.5707
v  -145.2784 137.3169 2.5707
v  -143.1488 72.7552 -1.0338
v  -143.1488 133.1205 -1.0338
v  -143.1488 133.1205 -56.4784
v  -143.1488 72.7552 -56.4784
v  -145.2784 133.1205 -56.4784
v  -145.2784 133.1205 -1.0338
v  -145.2784 68.9871 -59.7151
v  -145.2784 72.7552 -56.4784
v  -145.2784 72.7552 -1.0338
v  -124.5814 68.9871 2.5707
v  -145.2784 68.9871 2.5707
v  -145.2784 68.9871 2.2029
v  -124.5814 137.3169 65.4066
v  -145.2784 137.3169 65.4066
v  -145.2784 68.9871 65.4066
v  -124.5814 68.9871 65.4066
v  -124.5814 137.3169 2.7530
v  -145.2784 137.3169 2.7530
v  -143.1488 72.7552 6.3576
v  -143.1488 72.7552 61.8021
v  -143.1488 133.1205 61.8021
v  -143.1488 133.1205 6.3576
v  -145.2784 133.1205 6.3576
v  -145.2784 133.1205 61.8021
v  -145.2784 72.7552 61.8021
v  -145.2784 68.9871 65.0388
v  -145.2784 72.7552 6.3576
v  -124.5814 68.9871 2.7530
v  -145.2784 68.9871 2.7530
v  -145.2784 68.9871 3.1209
v  -124.5814 0.6573 -60.0829
v  -145.2784 0.6573 -60.0829
v  -124.5814 0.6573 2.5707
v  -145.2784 0.6573 2.5707
v  -143.1488 65.2190 -1.0338
v  -143.1488 65.2190 -56.4784
v  -143.1488 4.8537 -56.4784
v  -143.1488 4.8537 -1.0338
v  -145.2784 4.8537 -1.0338
v  -145.2784 4.8537 -56.4784
v  -145.2784 65.2190 -56.4784
v  -145.2784 65.2190 -1.0338
v  -124.5814 0.6573 65.4066
v  -145.2784 0.6573 65.4066
v  -124.5814 0.6573 2.7530
v  -145.2784 0.6573 2.7530
v  -143.1488 65.2190 6.3576
v  -143.1488 4.8537 6.3576
v  -143.1488 4.8537 61.8021
v  -143.1488 65.2190 61.8021
v  -145.2784 4.8537 61.8021
v  -145.2784 4.8537 6.3576
v  -145.2784 65.2190 61.8021
v  -145.2784 65.2190 6.3576
v  -39.6247 133.2611 -95.9406
v  -39.6247 85.3896 -95.9405
v  -39.6247 85.3896 -110.3504
v  -39.6247 133.2611 -110.3504
v  -83.2461 133.2611 -95.9406
v  -83.2461 133.2611 -110.3504
v  -83.2461 85.3896 -95.9406
v  -80.7365 88.3113 -108.8678
v  -80.7365 130.3394 -108.8678
v  -42.1343 130.3394 -108.8678
v  -42.1343 88.3113 -108.8678
v  -83.2461 85.3896 -110.3504
v  -80.7365 130.3394 -110.3504
v  -80.7365 88.3113 -110.3504
v  -42.1343 130.3394 -110.3504
v  -42.1343 88.3113 -110.3504
v  70.5823 133.2611 -95.9406
v  70.5823 85.3896 -95.9406
v  70.5823 85.3896 -110.3505
v  70.5823 133.2611 -110.3505
v  26.9609 133.2611 -95.9406
v  26.9609 133.2611 -110.3505
v  26.9609 85.3896 -95.9406
v  29.4705 88.3113 -108.8678
v  29.4705 130.3394 -108.8678
v  68.0728 130.3394 -108.8678
v  68.0728 88.3113 -108.8678
v  26.9609 85.3896 -110.3505
v  29.4705 130.3394 -110.3505
v  29.4705 88.3113 -110.3505
v  68.0728 130.3394 -110.3505
v  68.0728 88.3113 -110.3505
v  -139.1998 5.9177 -58.7182
v  -139.1998 65.7463 -1.9577
v  -139.1998 64.3629 -0.4995
v  -139.1998 4.5343 -57.2600
v  -139.1998 62.9795 0.9586
v  -139.1998 3.1509 -55.8019
v  -145.1104 5.9177 -58.7182
v  -145.1104 4.5343 -57.2600
v  -145.1104 64.3629 -0.4995
v  -145.1104 65.7463 -1.9577
v  -145.1104 3.1509 -55.8019
v  -145.1104 62.9795 0.9586
v  -139.1998 74.1243 -58.7053
v  -139.1998 133.9529 -1.9448
v  -139.1998 132.5695 -0.4866
v  -139.1998 72.7409 -57.2471
v  -139.1998 131.1861 0.9716
v  -139.1998 71.3575 -55.7889
v  -145.1104 74.1243 -58.7053
v  -145.1104 72.7409 -57.2471
v  -145.1104 132.5695 -0.4866
v  -145.1104 133.9529 -1.9448
v  -145.1104 71.3575 -55.7889
v  -145.1104 131.1861 0.9716
v  -139.1998 74.1243 4.4638
v  -139.1998 133.9529 61.2243
v  -139.1998 132.5695 62.6825
v  -139.1998 72.7409 5.9220
v  -139.1998 131.1861 64.1407
v  -139.1998 71.3575 7.3802
v  -145.1104 74.1243 4.4638
v  -145.1104 72.7409 5.9220
v  -145.1104 132.5695 62.6825
v  -145.1104 133.9529 61.2243
v  -145.1104 71.3575 7.3802
v  -145.1104 131.1861 64.1407
v  -139.1998 5.9177 4.4638
v  -139.1998 65.7463 61.2243
v  -139.1998 64.3629 62.6825
v  -139.1998 4.5343 5.9220
v  -139.1998 62.9795 64.1407
v  -139.1998 3.1509 7.3802
v  -145.1104 5.9177 4.4638
v  -145.1104 4.5343 5.9220
v  -145.1104 64.3629 62.6825
v  -145.1104 65.7463 61.2243
v  -145.1104 3.1509 7.3802
v  -145.1104 62.9795 64.1407
# 286 vertices

vn -0.3015 -0.9045 0.3015
vn 0.0000 -1.0000 -0.0000
vn 0.3015 -0.9045 -0.3015
vn -0.3015 -0.9045 -0.3015
vn 0.3015 -0.9045 0.3015
vn 0.7071 -0.7071 0.0000
vn -0.7071 -0.7071 -0.0000
vn 0.5773 0.8143 -0.0608
vn 0.7614 0.5226 -0.3837
vn -0.7614 0.5226 -0.3837
vn -0.5773 0.8142 -0.0609
vn 0.8078 0.5894 0.0000
vn -0.8078 0.5894 -0.0000
vn 0.7614 0.5226 0.3837
vn -0.7614 0.5226 0.3837
vn 0.5773 0.8143 0.0608
vn -0.5773 0.8142 0.0609
vn -0.6598 -0.6057 0.4447
vn -0.6365 -0.2684 0.7231
vn -0.6280 -0.7782 -0.0000
vn -0.6598 -0.6057 -0.4447
vn -0.6365 -0.2684 -0.7231
vn -0.5774 -0.5774 0.5774
vn 0.5774 -0.5774 0.5774
vn 0.6598 -0.6057 -0.4447
vn 0.6365 -0.2684 -0.7231
vn 0.6280 -0.7782 0.0000
vn 0.6598 -0.6057 0.4447
vn 0.6365 -0.2684 0.7231
vn 0.5774 -0.5774 -0.5774
vn -0.5774 -0.5774 -0.5774
vn 0.2762 0.8253 -0.4925
vn 0.0000 0.3480 -0.9375
vn -0.7448 0.2322 -0.6255
vn -0.7227 0.4897 -0.4877
vn -0.2762 0.8253 -0.4925
vn 0.7227 0.4897 -0.4877
vn 0.7448 0.2322 -0.6255
vn 0.2762 0.8253 0.4925
vn -0.7227 0.4897 0.4877
vn -0.7448 0.2322 0.6255
vn -0.0000 0.3480 0.9375
vn -0.2762 0.8253 0.4925
vn 0.7448 0.2322 0.6255
vn 0.7227 0.4897 0.4877
vn -0.7944 -0.2113 0.5694
vn -0.7222 -0.0545 -0.6895
vn -0.7944 -0.2113 -0.5694
vn -0.7222 -0.0545 0.6895
vn -0.2762 -0.3041 0.9117
vn 0.7222 -0.0545 0.6895
vn 0.2762 -0.3041 0.9117
vn 0.7944 -0.2113 -0.5694
vn 0.7944 -0.2113 0.5694
vn 0.7222 -0.0545 -0.6895
vn 0.2762 -0.3041 -0.9117
vn -0.2762 -0.3041 -0.9117
vn 0.6691 0.5991 -0.4398
vn -0.6498 0.6121 -0.4506
vn -0.6691 0.5991 -0.4398
vn 0.6498 0.6121 -0.4506
vn 0.6280 0.7782 0.0000
vn -0.6244 0.7811 -0.0000
vn -0.6280 0.7782 -0.0000
vn 0.6244 0.7811 0.0000
vn 0.6691 0.5991 0.4398
vn -0.6498 0.6121 0.4506
vn -0.6691 0.5991 0.4398
vn 0.6498 0.6121 0.4506
vn -0.7614 -0.5226 0.3837
vn -0.5773 -0.5769 -0.5779
vn -0.8124 -0.5831 -0.0000
vn -0.7614 -0.5226 -0.3837
vn -0.5773 -0.5769 0.5779
vn 0.5773 -0.5769 0.5779
vn 0.7614 -0.5226 -0.3837
vn 0.8124 -0.5831 0.0000
vn 0.7614 -0.5226 0.3837
vn 0.5773 -0.5769 -0.5779
vn 0.5515 -0.7420 -0.3811
vn 0.7071 0.0000 -0.7071
vn 1.0000 0.0000 0.0000
vn 0.8641 -0.5032 0.0000
vn -0.5515 -0.7420 -0.3811
vn -0.8641 -0.5032 -0.0000
vn -1.0000 -0.0000 -0.0000
vn -0.7071 -0.0000 -0.7071
vn 0.4674 -0.8441 0.2628
vn -0.4674 -0.8441 0.2628
vn 0.5965 -0.8026 0.0000
vn -0.5965 -0.8026 -0.0000
vn -0.6175 0.3584 -0.7002
vn -0.5962 0.8028 -0.0000
vn 0.5962 0.8028 0.0000
vn 0.6175 0.3584 -0.7002
vn 0.5507 -0.7441 -0.3782
vn 0.8649 -0.5020 0.0000
vn -0.5507 -0.7441 -0.3782
vn -0.8649 -0.5020 -0.0000
vn 0.5515 -0.7420 0.3811
vn 0.7071 0.0000 0.7071
vn -0.5515 -0.7420 0.3811
vn -0.7071 -0.0000 0.7071
vn 0.4674 -0.8441 -0.2628
vn -0.4674 -0.8441 -0.2628
vn -0.6175 0.3584 0.7002
vn 0.6175 0.3584 0.7002
vn 0.5507 -0.7441 0.3782
vn -0.5507 -0.7441 0.3782
vn 0.5773 0.5774 -0.5774
vn -0.5773 -0.5774 -0.5774
vn -0.5774 0.5774 -0.5774
vn 0.5773 0.5774 0.5774
vn -0.5774 0.5774 0.5774
vn -0.5773 -0.5774 0.5774
vn -0.9045 -0.3015 -0.3015
vn -0.9045 0.3015 -0.3015
vn -0.9045 -0.3015 0.3015
vn -0.9045 0.3015 0.3015
vn 0.5774 0.5774 -0.5774
vn 0.7071 0.7071 0.0000
vn -0.7071 0.7071 -0.0000
vn -1.0000 0.0000 -0.0000
vn 0.5774 0.5774 0.5774
vn 0.3015 -0.3015 -0.9045
vn 0.3015 0.3015 -0.9045
vn -0.3015 -0.3015 -0.9045
vn -0.3015 0.3015 -0.9045
vn 0.5774 -0.5774 -0.5773
vn 0.5774 0.5774 -0.5773
vn 0.5774 -0.0215 -0.8162
vn 0.5774 0.8162 -0.0215
vn 0.7071 0.5130 0.4867
vn 0.7071 -0.5130 -0.4867
vn 0.5774 0.0215 0.8162
vn 0.5774 -0.8162 0.0215
vn -0.5774 -0.0215 -0.8162
vn -0.7071 -0.5130 -0.4867
vn -0.7071 0.5130 0.4867
vn -0.5774 0.8162 -0.0215
vn -0.5774 -0.8162 0.0215
vn -0.5774 0.0215 0.8162
vn 0.5773 0.8163 -0.0215
vn -0.5773 0.8163 -0.0215
# 144 vertex normals

vt 0.9767 0.0000 0.0000
vt 1.0000 0.0000 0.0000
vt 1.0000 0.0175 0.0000
vt 1.0000 0.9825 0.0000
vt 1.0000 1.0000 0.0000
vt 0.9767 1.0000 0.0000
vt 0.7500 1.0000 0.0000
vt 0.7500 0.0000 0.0000
vt 0.5000 1.0000 0.0000
vt 0.5000 0.0000 0.0000
vt 0.2500 1.0000 0.0000
vt 0.2500 0.0000 0.0000
vt 0.0233 1.0000 0.0000
vt 0.0000 1.0000 0.0000
vt 0.0000 0.9825 0.0000
vt 0.0000 0.0175 0.0000
vt 0.0000 0.0000 0.0000
vt 0.0233 0.0000 0.0000
vt 0.0152 0.0175 0.0000
vt 0.2500 0.0175 0.0000
vt 0.2500 0.9825 0.0000
vt 0.0152 0.9825 0.0000
vt 0.5000 0.0175 0.0000
vt 0.5000 0.9825 0.0000
vt 0.7500 0.0175 0.0000
vt 0.7500 0.9825 0.0000
vt 0.9848 0.0175 0.0000
vt 0.9848 0.9825 0.0000
vt 0.2500 0.9772 0.0000
vt 0.0233 0.9567 0.0000
vt 0.5000 0.9792 0.0000
vt 0.7500 0.9772 0.0000
vt 0.9767 0.9787 0.0000
vt 0.0175 0.0000 0.0000
vt 0.9825 0.0000 0.0000
vt 0.9825 0.9717 0.0000
vt 0.0175 0.9717 0.0000
vt 0.0152 0.0000 0.0000
vt 0.0152 1.0000 0.0000
vt 0.9848 0.0000 0.0000
vt 0.9848 1.0000 0.0000
vt 0.0000 0.9717 0.0000
vt 1.0000 0.9717 0.0000
vt 0.9825 1.0000 0.0000
vt 0.0175 1.0000 0.0000
vt 1.0000 0.9711 0.0000
vt 0.5000 0.9711 0.0000
vt 0.0000 0.9711 0.0000
vt 0.0289 0.0000 0.0000
vt 0.0289 1.0000 0.0000
vt 1.0000 0.5000 0.0000
vt 0.5000 0.5000 0.0000
vt 0.0000 0.5000 0.0000
vt 0.4969 0.0000 0.0000
vt 0.4969 1.0000 0.0000
vt 0.0000 0.5031 0.0000
vt 1.0000 0.5031 0.0000
vt 0.5000 0.5031 0.0000
# 58 texture coords

o Barn
g Barn
usemtl wire_086086086
f 1/1/1 2/2/2 3/3/3 4/4/4 5/5/2 6/6/5 7/7/6 8/8/7 
f 8/8/7 7/7/6 9/9/6 10/10/7 
f 10/10/7 9/9/6 11/11/6 12/12/7 
f 12/12/7 11/11/6 13/13/3 14/14/2 15/15/1 16/16/5 17/17/2 18/18/4 
f 19/19/8 20/20/9 21/21/10 22/22/11 
f 20/20/9 23/23/12 24/24/13 21/21/10 
f 23/23/12 25/25/14 26/26/15 24/24/13 
f 25/25/14 27/27/16 28/28/17 26/26/15 
f 1/18/1 8/12/7 29/29/18 30/30/19 
f 8/12/7 10/10/7 31/31/20 29/29/18 
f 10/10/7 12/8/7 32/32/21 31/31/20 
f 12/8/7 18/1/4 33/33/22 32/32/21 
f 16/34/5 15/35/1 34/36/23 35/37/24 
f 13/18/3 11/12/6 36/29/25 37/30/26 
f 11/12/6 9/10/6 38/31/27 36/29/25 
f 9/10/6 7/8/6 39/32/28 38/31/27 
f 7/8/6 6/1/5 40/33/29 39/32/28 
f 4/34/4 3/35/3 41/36/30 42/37/31 
f 43/19/32 44/16/33 45/17/34 46/38/35 
f 47/22/36 48/39/37 49/14/38 50/15/33 
f 51/27/39 52/40/40 53/2/41 54/3/42 
f 55/28/43 56/4/42 57/5/44 58/41/45 
f 59/30/46 46/39/35 45/14/34 60/42/47 
f 61/33/48 62/43/49 53/5/41 52/41/40 
f 63/36/50 64/43/51 57/5/44 56/44/42 
f 65/37/52 54/45/42 53/14/41 62/42/49 
f 66/30/53 58/39/45 57/14/44 64/42/51 
f 67/33/54 68/43/55 49/5/38 48/41/37 
f 69/36/56 60/43/47 45/5/34 44/44/33 
f 70/37/57 50/45/33 49/14/38 68/42/55 
f 71/20/58 43/19/32 46/38/35 72/12/59 
f 47/22/36 73/21/60 74/11/61 48/39/37 
f 43/19/32 47/22/36 50/15/33 44/16/33 
f 75/23/62 71/20/58 72/12/59 76/10/63 
f 73/21/60 77/24/64 78/9/65 74/11/61 
f 79/25/66 75/23/62 76/10/63 80/8/67 
f 77/24/64 81/26/68 82/7/69 78/9/65 
f 51/27/39 79/25/66 80/8/67 52/40/40 
f 55/28/43 51/27/39 54/3/42 56/4/42 
f 81/26/68 55/28/43 58/41/45 82/7/69 
f 59/30/46 83/29/70 72/11/59 46/39/35 
f 84/18/23 59/30/46 60/42/47 85/17/71 
f 83/29/70 86/31/72 76/9/63 72/11/59 
f 86/31/72 87/32/73 80/7/67 76/9/63 
f 61/33/48 88/1/31 89/2/74 62/43/49 
f 87/32/73 61/33/48 52/41/40 80/7/67 
f 63/36/50 90/35/23 91/2/75 64/43/51 
f 65/37/52 63/36/50 56/44/42 54/45/42 
f 92/34/24 65/37/52 62/42/49 89/17/74 
f 66/30/53 93/29/76 82/11/69 58/39/45 
f 94/18/30 66/30/53 64/42/51 91/17/75 
f 93/29/76 95/31/77 78/9/65 82/11/69 
f 95/31/77 96/32/78 74/7/61 78/9/65 
f 67/33/54 97/1/24 98/2/79 68/43/55 
f 96/32/78 67/33/54 48/41/37 74/7/61 
f 69/36/56 99/35/30 85/2/71 60/43/47 
f 70/37/57 69/36/56 44/44/33 50/45/33 
f 100/34/31 70/37/57 68/42/55 98/17/79 
f 2/17/2 1/18/1 84/18/23 85/17/71 
f 1/18/1 30/30/19 59/30/46 84/18/23 
f 30/30/19 29/29/18 83/29/70 59/30/46 
f 29/29/18 31/31/20 86/31/72 83/29/70 
f 31/31/20 32/32/21 87/32/73 86/31/72 
f 32/32/21 33/33/22 61/33/48 87/32/73 
f 33/33/22 18/1/4 88/1/31 61/33/48 
f 18/1/4 17/2/2 89/2/74 88/1/31 
f 17/17/2 16/34/5 92/34/24 89/17/74 
f 16/34/5 35/37/24 65/37/52 92/34/24 
f 35/37/24 34/36/23 63/36/50 65/37/52 
f 34/36/23 15/35/1 90/35/23 63/36/50 
f 15/35/1 14/2/2 91/2/75 90/35/23 
f 14/17/2 13/18/3 94/18/30 91/17/75 
f 13/18/3 37/30/26 66/30/53 94/18/30 
f 37/30/26 36/29/25 93/29/76 66/30/53 
f 36/29/25 38/31/27 95/31/77 93/29/76 
f 38/31/27 39/32/28 96/32/78 95/31/77 
f 39/32/28 40/33/29 67/33/54 96/32/78 
f 40/33/29 6/1/5 97/1/24 67/33/54 
f 6/1/5 5/2/2 98/2/79 97/1/24 
f 5/17/2 4/34/4 100/34/31 98/17/79 
f 4/34/4 42/37/31 70/37/57 100/34/31 
f 42/37/31 41/36/30 69/36/56 70/37/57 
f 41/36/30 3/35/3 99/35/30 69/36/56 
f 3/35/3 2/2/2 85/2/71 99/35/30 
f 20/20/9 19/19/8 43/19/32 71/20/58 
f 19/19/8 22/22/11 47/22/36 43/19/32 
f 22/22/11 21/21/10 73/21/60 47/22/36 
f 21/21/10 24/24/13 77/24/64 73/21/60 
f 24/24/13 26/26/15 81/26/68 77/24/64 
f 26/26/15 28/28/17 55/28/43 81/26/68 
f 28/28/17 27/27/16 51/27/39 55/28/43 
f 27/27/16 25/25/14 79/25/66 51/27/39 
f 25/25/14 23/23/12 75/23/62 79/25/66 
f 23/23/12 20/20/9 71/20/58 75/23/62 
f 101/2/80 102/46/81 103/47/82 104/10/83 
f 105/17/84 106/10/85 107/47/86 108/48/87 
f 101/17/80 104/10/83 106/9/85 105/14/84 
f 109/17/88 102/49/81 108/50/87 110/14/89 
f 102/46/81 109/5/88 111/9/90 103/47/82 
f 107/47/86 112/9/91 110/14/89 108/48/87 
f 102/49/81 101/2/80 105/5/84 108/50/87 
f 113/14/92 114/9/93 115/9/94 116/5/95 
f 111/9/90 109/5/88 117/5/96 118/9/97 
f 109/5/88 110/14/89 119/14/98 117/5/96 
f 110/14/89 112/9/91 120/9/99 119/14/98 
f 118/9/97 117/5/96 116/5/95 115/9/94 
f 117/5/96 119/14/98 113/14/92 116/5/95 
f 119/14/98 120/9/99 114/9/93 113/14/92 
f 121/2/100 104/10/83 103/47/82 122/46/101 
f 123/17/102 124/48/103 107/47/86 106/10/85 
f 121/17/100 123/14/102 106/9/85 104/10/83 
f 125/17/104 126/14/105 124/50/103 122/49/101 
f 122/46/101 103/47/82 111/9/90 125/5/104 
f 107/47/86 124/48/103 126/14/105 112/9/91 
f 122/49/101 124/50/103 123/5/102 121/2/100 
f 127/14/106 128/5/107 115/9/94 114/9/93 
f 111/9/90 118/9/97 129/5/108 125/5/104 
f 125/5/104 129/5/108 130/14/109 126/14/105 
f 126/14/105 130/14/109 120/9/99 112/9/91 
f 118/9/97 115/9/94 128/5/107 129/5/108 
f 129/5/108 128/5/107 127/14/106 130/14/109 
f 130/14/109 127/14/106 114/9/93 120/9/99 
f 131/17/110 132/10/30 133/9/111 134/14/112 
f 135/10/113 131/2/110 134/5/112 136/9/114 
f 132/51/30 131/5/110 135/9/113 137/52/24 
f 138/52/112 139/9/31 140/14/23 141/53/114 
f 142/52/115 136/9/114 143/9/116 144/52/117 
f 136/9/114 134/14/112 145/14/118 143/9/116 
f 134/14/112 133/53/111 146/53/119 145/14/118 
f 133/53/111 142/52/115 144/52/117 146/53/119 
f 144/52/117 143/9/116 139/9/31 138/52/112 
f 143/9/116 145/14/118 140/14/23 139/9/31 
f 145/14/118 146/53/119 141/53/114 140/14/23 
f 146/53/119 144/52/117 138/52/112 141/53/114 
f 136/5/114 142/10/115 137/9/24 135/2/113 
f 142/10/115 133/14/111 132/17/30 137/9/24 
f 147/17/120 148/54/81 149/55/87 150/14/112 
f 151/10/121 147/2/120 150/5/112 152/9/122 
f 153/52/112 154/9/31 155/14/23 156/53/114 
f 152/9/122 150/14/112 157/14/118 158/9/116 
f 150/14/112 149/56/87 159/53/123 160/53/119 157/14/118 
f 161/52/117 158/9/116 154/9/31 153/52/112 
f 158/9/116 157/14/118 155/14/23 154/9/31 
f 157/14/118 160/53/119 156/53/114 155/14/23 
f 160/53/119 161/52/117 153/52/112 156/53/114 
f 148/57/81 147/5/120 151/9/121 162/58/82 
f 163/58/86 152/9/122 158/9/116 161/52/117 164/52/123 
f 164/52/123 161/52/117 160/53/119 159/53/123 
f 165/17/113 166/14/114 167/55/103 168/54/101 
f 169/10/121 170/9/122 166/5/114 165/2/113 
f 171/52/114 172/53/112 173/14/31 174/9/23 
f 170/9/122 175/9/118 176/14/116 166/14/114 
f 166/14/114 176/14/116 177/53/117 178/53/123 167/56/103 
f 179/52/119 171/52/114 174/9/23 175/9/118 
f 175/9/118 174/9/23 173/14/31 176/14/116 
f 176/14/116 173/14/31 172/53/112 177/53/117 
f 177/53/117 172/53/112 171/52/114 179/52/119 
f 168/57/101 180/58/82 169/9/121 165/5/113 
f 181/58/86 182/52/123 179/52/119 175/9/118 170/9/122 
f 182/52/123 178/53/123 177/53/117 179/52/119 
f 183/17/30 184/14/31 149/55/87 148/54/81 
f 185/10/6 186/9/7 184/5/31 183/2/30 
f 187/52/31 188/53/23 189/14/114 190/9/112 
f 186/9/7 191/9/117 192/14/119 184/14/31 
f 184/14/31 192/14/119 193/53/118 159/53/123 149/56/87 
f 194/52/116 187/52/31 190/9/112 191/9/117 
f 191/9/117 190/9/112 189/14/114 192/14/119 
f 192/14/119 189/14/114 188/53/23 193/53/118 
f 193/53/118 188/53/23 187/52/31 194/52/116 
f 148/57/81 162/58/82 185/9/6 183/5/30 
f 163/58/86 164/52/123 194/52/116 191/9/117 186/9/7 
f 164/52/123 159/53/123 193/53/118 194/52/116 
f 195/17/24 168/54/101 167/55/103 196/14/23 
f 197/10/6 195/2/24 196/5/23 198/9/7 
f 199/52/23 200/9/114 201/14/112 202/53/31 
f 198/9/7 196/14/23 203/14/117 204/9/119 
f 196/14/23 167/56/103 178/53/123 205/53/116 203/14/117 
f 206/52/118 204/9/119 200/9/114 199/52/23 
f 204/9/119 203/14/117 201/14/112 200/9/114 
f 203/14/117 205/53/116 202/53/31 201/14/112 
f 205/53/116 206/52/118 199/52/23 202/53/31 
f 168/57/101 195/5/24 197/9/6 180/58/82 
f 181/58/86 198/9/7 204/9/119 206/52/118 182/52/123 
f 182/52/123 206/52/118 205/53/116 178/53/123 
f 207/17/124 208/10/24 209/9/30 210/14/120 
f 211/10/114 207/2/124 210/5/120 212/9/112 
f 208/51/24 207/5/124 211/9/114 213/52/23 
f 214/52/120 215/9/30 216/14/31 217/53/112 
f 218/52/31 212/9/112 219/9/125 220/52/126 
f 212/9/112 210/14/120 221/14/127 219/9/125 
f 210/14/120 209/53/30 222/53/128 221/14/127 
f 209/53/30 218/52/31 220/52/126 222/53/128 
f 220/52/126 219/9/125 215/9/30 214/52/120 
f 219/9/125 221/14/127 216/14/31 215/9/30 
f 221/14/127 222/53/128 217/53/112 216/14/31 
f 222/53/128 220/52/126 214/52/120 217/53/112 
f 212/5/112 218/10/31 213/9/23 211/2/114 
f 218/10/31 209/14/30 208/17/24 213/9/23 
f 223/17/113 224/10/24 225/9/129 226/14/130 
f 227/10/114 223/2/113 226/5/130 228/9/112 
f 224/51/24 223/5/113 227/9/114 229/52/23 
f 230/52/120 231/9/30 232/14/31 233/53/112 
f 234/52/31 228/9/112 235/9/125 236/52/126 
f 228/9/112 226/14/130 237/14/127 235/9/125 
f 226/14/130 225/53/129 238/53/128 237/14/127 
f 225/53/129 234/52/31 236/52/126 238/53/128 
f 236/52/126 235/9/125 231/9/30 230/52/120 
f 235/9/125 237/14/127 232/14/31 231/9/30 
f 237/14/127 238/53/128 233/53/112 232/14/31 
f 238/53/128 236/52/126 230/52/120 233/53/112 
f 228/5/112 234/10/31 229/9/23 227/2/114 
f 234/10/31 225/14/129 224/17/24 229/9/23 
f 239/2/131 240/5/132 241/9/133 242/10/134 
f 242/10/134 241/9/133 243/14/135 244/17/136 
f 245/17/137 246/10/138 247/9/139 248/14/140 
f 246/10/138 249/2/141 250/5/142 247/9/139 
f 239/17/131 242/10/134 246/9/138 245/14/137 
f 242/10/134 244/2/136 249/5/141 246/9/138 
f 244/17/136 243/2/135 250/5/142 249/14/141 
f 243/17/135 241/10/133 247/9/139 250/14/142 
f 241/10/133 240/2/132 248/5/140 247/9/139 
f 240/17/132 239/2/131 245/5/137 248/14/140 
f 251/2/131 252/5/132 253/9/133 254/10/134 
f 254/10/134 253/9/133 255/14/135 256/17/136 
f 257/17/137 258/10/138 259/9/139 260/14/140 
f 258/10/138 261/2/141 262/5/142 259/9/139 
f 251/17/131 254/10/134 258/9/138 257/14/137 
f 254/10/134 256/2/136 261/5/141 258/9/138 
f 256/17/136 255/2/135 262/5/142 261/14/141 
f 255/17/135 253/10/133 259/9/139 262/14/142 
f 253/10/133 252/2/132 260/5/140 259/9/139 
f 252/17/132 251/2/131 257/5/137 260/14/140 
f 263/2/131 264/5/143 265/9/133 266/10/134 
f 266/10/134 265/9/133 267/14/135 268/17/136 
f 269/17/137 270/10/138 271/9/139 272/14/144 
f 270/10/138 273/2/141 274/5/142 271/9/139 
f 263/17/131 266/10/134 270/9/138 269/14/137 
f 266/10/134 268/2/136 273/5/141 270/9/138 
f 268/17/136 267/2/135 274/5/142 273/14/141 
f 267/17/135 265/10/133 271/9/139 274/14/142 
f 265/10/133 264/2/143 272/5/144 271/9/139 
f 264/17/143 263/2/131 269/5/137 272/14/144 
f 275/2/131 276/5/132 277/9/133 278/10/134 
f 278/10/134 277/9/133 279/14/135 280/17/136 
f 281/17/137 282/10/138 283/9/139 284/14/140 
f 282/10/138 285/2/141 286/5/142 283/9/139 
f 275/17/131 278/10/134 282/9/138 281/14/137 
f 278/10/134 280/2/136 285/5/141 282/9/138 
f 280/17/136 279/2/135 286/5/142 285/14/141 
f 279/17/135 277/10/133 283/9/139 286/14/142 
f 277/10/133 276/2/132 284/5/140 283/9/139 
f 276/17/132 275/2/131 281/5/137 284/14/140 
# 252 polygons

