# 3ds Max Wavefront OBJ Exporter v0.99 - (c)2007 guruware
# File Created: 27.04.2022 17:39:34

mtllib Grass.mtl

#
# object Plane026
#

v  -253.0150 0.0000 46.8961
v  -253.0150 0.0000 56.8961
v  -243.0150 0.0000 56.8961
v  -243.0150 0.0000 46.8961
# 4 vertices

vn 0.0000 1.0000 -0.0000
# 1 vertex normals

vt 0.0000 1.0000 0.0000
vt 0.0000 0.0000 0.0000
vt 1.0000 0.0000 0.0000
vt 1.0000 1.0000 0.0000
# 4 texture coords

o Plane026
g Plane026
usemtl wire_135110008
s 1
f 1/1/1 2/2/1 3/3/1 4/4/1 
# 1 polygons

