# 3ds Max Wavefront OBJ Exporter v0.99 - (c)2007 guruware
# File Created: 28.04.2022 19:02:40

mtllib Plant_Full.mtl

#
# object Box050
#

v  -0.1172 0.0000 0.1961
v  -0.1172 0.0000 -0.1961
v  0.3086 0.0000 -0.1961
v  0.3086 0.0000 0.1961
v  -0.1194 6.0912 0.1099
v  0.1194 6.0912 0.1099
v  0.1194 6.0912 -0.1099
v  -0.1194 6.0912 -0.1099
v  0.1001 2.0304 0.1983
v  0.2531 4.0608 0.1499
v  -0.0480 4.0608 0.1499
v  -0.2633 2.0304 0.1983
v  0.1001 2.0304 -0.1365
v  0.2531 4.0608 -0.1274
v  -0.2633 2.0304 -0.1365
v  -0.0480 4.0608 -0.1274
v  0.0431 6.0707 -0.0245
v  -0.3254 6.1777 0.0742
v  -0.6311 6.2644 0.4528
v  -0.1916 6.2644 0.6127
v  -0.6403 6.1777 0.9392
v  -0.4630 5.9889 1.3694
v  0.2575 6.1786 0.2918
v  0.2478 6.2644 0.7727
v  -0.0539 6.1786 1.1473
v  0.0302 6.0707 -0.0046
v  0.3988 6.1777 -0.1034
v  0.7044 6.2644 -0.4820
v  0.2650 6.2644 -0.6419
v  0.7136 6.1777 -0.9684
v  0.5364 5.9889 -1.3986
v  -0.1842 6.1786 -0.3209
v  -0.1744 6.2644 -0.8018
v  0.1272 6.1786 -1.1765
v  -0.0489 5.1307 -0.0188
v  -0.1151 5.2377 -0.3945
v  -0.4656 5.3244 -0.7320
v  -0.6632 5.3244 -0.3082
v  -0.9494 5.2377 -0.7836
v  -1.3934 5.0489 -0.6445
v  -0.3826 5.2386 0.1672
v  -0.8608 5.3244 0.1156
v  -1.2078 5.2386 -0.2175
v  0.0977 5.1307 0.1411
v  0.2589 5.2377 0.4869
v  0.6848 5.3244 0.7221
v  0.7660 5.3244 0.2616
v  1.1655 5.2377 0.6468
v  1.5583 5.0489 0.3975
v  0.3719 5.2386 -0.1250
v  0.8472 5.3244 -0.1989
v  1.2685 5.2386 0.0331
v  0.0239 4.6517 -0.1301
v  0.3825 4.7586 -0.2605
v  0.6539 4.8454 -0.6643
v  0.2022 4.8454 -0.7853
v  0.6207 4.7586 -1.1497
v  0.4066 4.5698 -1.5628
v  -0.2172 4.7595 -0.4264
v  -0.2494 4.8454 -0.9064
v  0.0184 4.7595 -1.3059
v  -0.1080 4.6517 0.0420
v  -0.4206 4.7586 0.2609
v  -0.5783 4.8454 0.7211
v  -0.1107 4.8454 0.7211
v  -0.4206 4.7586 1.1814
v  -0.1069 4.5698 1.5250
v  0.2016 4.7595 0.2659
v  0.3569 4.8454 0.7211
v  0.2016 4.7595 1.1763
v  -0.0351 3.8149 0.0501
v  -0.4037 3.9218 0.1489
v  -0.7093 4.0086 0.5274
v  -0.2699 4.0086 0.6874
v  -0.7186 3.9218 1.0139
v  -0.5413 3.7330 1.4441
v  0.1792 3.9227 0.3664
v  0.1695 4.0086 0.8473
v  -0.1322 3.9227 1.2220
v  -0.0163 3.4232 -0.1020
v  -0.0496 3.5302 -0.4821
v  -0.3693 3.6169 -0.8489
v  -0.6031 3.6169 -0.4439
v  -0.8468 3.5302 -0.9424
v  -1.3012 3.3414 -0.8425
v  -0.3650 3.5311 0.0542
v  -0.8370 3.6169 -0.0389
v  -1.1535 3.5311 -0.4010
v  0.1113 3.8334 -0.0863
v  0.4799 3.9404 -0.1850
v  0.7855 4.0271 -0.5636
v  0.3461 4.0271 -0.7235
v  0.7948 3.9404 -1.0500
v  0.6175 3.7516 -1.4802
v  -0.1030 3.9413 -0.4025
v  -0.0933 4.0271 -0.8834
v  0.2084 3.9413 -1.2581
v  0.0925 3.4047 0.0659
v  0.1258 3.5116 0.4460
v  0.4455 3.5984 0.8128
v  0.6793 3.5984 0.4078
v  0.9230 3.5116 0.9063
v  1.3774 3.3228 0.8064
v  0.4412 3.5125 -0.0903
v  0.9131 3.5984 0.0028
v  1.2297 3.5125 0.3649
v  -0.1427 2.5357 -0.0810
v  -0.3615 2.6426 -0.3936
v  -0.8218 2.7294 -0.5513
v  -0.8218 2.7294 -0.0837
v  -1.2820 2.6426 -0.3936
v  -1.6256 2.4539 -0.0799
v  -0.3666 2.6436 0.2286
v  -0.8218 2.7294 0.3839
v  -1.2770 2.6436 0.2286
v  -0.0712 2.0549 0.0632
v  -0.3838 2.1618 0.2821
v  -0.5415 2.2486 0.7424
v  -0.0739 2.2486 0.7424
v  -0.3838 2.1618 1.2026
v  -0.0701 1.9731 1.5462
v  0.2384 2.1628 0.2871
v  0.3937 2.2486 0.7424
v  0.2384 2.1628 1.1976
v  0.0730 2.5172 -0.0082
v  0.2919 2.6241 0.3044
v  0.7522 2.7108 0.4621
v  0.7522 2.7108 -0.0055
v  1.2124 2.6241 0.3044
v  1.5560 2.4353 -0.0093
v  0.2969 2.6250 -0.3178
v  0.7522 2.7108 -0.4731
v  1.2074 2.6250 -0.3178
v  0.0016 2.0735 -0.1524
v  0.3142 2.1804 -0.3713
v  0.4719 2.2672 -0.8316
v  0.0043 2.2672 -0.8316
v  0.3142 2.1804 -1.2918
v  0.0005 1.9916 -1.6354
v  -0.3080 2.1814 -0.3763
v  -0.4633 2.2672 -0.8316
v  -0.3080 2.1814 -1.2868
v  -0.0869 1.4162 0.0081
v  -0.0206 1.5231 -0.3677
v  -0.2346 1.6099 -0.8047
v  -0.5652 1.6099 -0.4740
v  -0.6715 1.5231 -1.0186
v  -1.1363 1.3344 -1.0397
v  -0.4642 1.5241 0.0687
v  -0.8959 1.6099 -0.1434
v  -1.1079 1.5241 -0.5751
# 151 vertices

vn -0.5108 -0.6275 0.5877
vn -0.5086 -0.5987 -0.6188
vn 0.6538 -0.4758 -0.5884
vn 0.6615 -0.4956 0.5629
vn -0.6122 0.5646 0.5536
vn 0.5182 0.6403 0.5670
vn 0.5172 0.6305 -0.5788
vn -0.6099 0.5565 -0.5641
vn 0.6318 0.0535 0.7733
vn 0.7483 0.0286 0.6628
vn -0.6522 0.1199 0.7485
vn -0.7463 0.0525 0.6635
vn 0.6494 0.0694 -0.7573
vn 0.7454 0.0019 -0.6666
vn -0.7616 0.0634 -0.6450
vn -0.6514 0.0802 -0.7545
vn 0.0360 0.9957 -0.0852
vn 0.1015 0.9948 0.0021
vn 0.0009 1.0000 -0.0022
vn -0.0034 1.0000 0.0086
vn 0.2063 0.9767 0.0597
vn -0.0425 0.9938 0.1025
vn -0.0810 0.9950 -0.0587
vn -0.0009 1.0000 0.0022
vn -0.2056 0.9753 -0.0805
vn -0.0360 0.9957 0.0852
vn -0.1015 0.9948 -0.0021
vn 0.0034 1.0000 -0.0086
vn -0.2063 0.9767 -0.0597
vn 0.0425 0.9938 -0.1025
vn 0.0810 0.9950 0.0587
vn 0.2056 0.9753 0.0805
vn 0.0907 0.9952 0.0371
vn -0.0111 0.9956 0.0930
vn -0.0027 1.0000 -0.0012
vn -0.0090 1.0000 -0.0039
vn -0.0828 0.9793 0.1846
vn -0.1093 0.9931 -0.0434
vn 0.0705 0.9951 -0.0692
vn 0.0027 1.0000 0.0012
vn 0.1053 0.9776 -0.1820
vn -0.0978 0.9951 -0.0153
vn -0.0154 0.9956 -0.0925
vn 0.0013 1.0000 0.0002
vn 0.0098 1.0000 0.0016
vn 0.0281 0.9798 -0.1981
vn 0.1175 0.9929 0.0174
vn -0.0487 0.9953 0.0837
vn -0.0013 1.0000 -0.0002
vn -0.0506 0.9783 0.2010
vn -0.0274 0.9958 0.0879
vn -0.1013 0.9948 0.0061
vn -0.0005 1.0000 0.0017
vn 0.0026 1.0000 -0.0089
vn -0.2111 0.9765 -0.0429
vn 0.0321 0.9939 -0.1056
vn 0.0863 0.9949 0.0519
vn 0.0005 1.0000 -0.0017
vn 0.2123 0.9751 0.0637
vn 0.0004 0.9958 -0.0914
vn 0.0961 0.9949 -0.0300
vn 0.0000 1.0000 -0.0000
vn -0.0000 1.0000 0.0092
vn 0.2159 0.9764 -0.0089
vn 0.0006 0.9940 0.1097
vn -0.0979 0.9948 -0.0296
vn -0.0000 1.0000 0.0000
vn -0.2229 0.9748 -0.0109
vn 0.0870 0.9952 0.0440
vn -0.0198 0.9956 0.0918
vn -0.0029 1.0000 -0.0016
vn -0.0086 1.0000 -0.0046
vn -0.0999 0.9791 0.1772
vn -0.1050 0.9931 -0.0517
vn 0.0768 0.9950 -0.0633
vn 0.0029 1.0000 0.0016
vn 0.1220 0.9774 -0.1728
vn -0.0870 0.9952 -0.0440
vn 0.0198 0.9956 -0.0918
vn 0.0086 1.0000 0.0046
vn 0.0999 0.9791 -0.1772
vn 0.1050 0.9931 0.0517
vn -0.0768 0.9950 0.0633
vn -0.1220 0.9774 0.1728
vn 0.0992 0.9951 0.0003
vn 0.0326 0.9955 0.0886
vn -0.0099 1.0000 0.0000
vn 0.0097 0.9798 0.1996
vn -0.1190 0.9929 0.0004
vn 0.0322 0.9954 -0.0902
vn 0.0119 0.9785 -0.2061
vn -0.0992 0.9951 -0.0003
vn -0.0326 0.9955 -0.0886
vn 0.0099 1.0000 -0.0000
vn -0.0097 0.9798 -0.1996
vn 0.1190 0.9929 -0.0004
vn -0.0322 0.9954 0.0902
vn -0.0119 0.9785 0.2061
vn -0.0004 0.9958 0.0914
vn -0.0961 0.9949 0.0300
vn 0.0000 1.0000 0.0000
vn 0.0000 1.0000 -0.0092
vn -0.2159 0.9764 0.0089
vn -0.0006 0.9940 -0.1097
vn 0.0979 0.9948 0.0296
vn 0.2229 0.9748 0.0109
vn 0.0719 0.9954 0.0630
vn -0.0449 0.9955 0.0839
vn -0.0028 1.0000 -0.0025
vn -0.0070 1.0000 -0.0065
vn -0.1461 0.9782 0.1472
vn -0.0873 0.9934 -0.0746
vn 0.0920 0.9948 -0.0428
vn 0.0028 1.0000 0.0025
vn 0.1663 0.9764 -0.1377
# 115 vertex normals

vt 1.0000 0.0000 0.0000
vt 1.0000 1.0000 0.0000
vt 0.0000 1.0000 0.0000
vt 0.0000 0.0000 0.0000
vt 1.0000 0.3333 0.0000
vt 1.0000 0.6667 0.0000
vt 0.0000 0.6667 0.0000
vt 0.0000 0.3333 0.0000
vt 0.0000 0.5000 0.0000
vt 0.5000 0.0000 0.0000
vt 0.5000 0.5000 0.0000
vt 1.0000 0.5000 0.0000
vt 0.5000 1.0000 0.0000
# 13 texture coords

o Box050
g Box050
usemtl wire_086086086
s 2
f 1/1/1 2/2/2 3/3/3 4/4/4 
s 4
f 5/4/5 6/1/6 7/2/7 8/3/8 
s 8
f 9/5/9 10/6/10 11/7/11 12/8/12 
s 16
f 13/5/13 14/6/14 10/7/10 9/8/9 
s 32
f 15/5/15 16/6/16 14/7/14 13/8/13 
s 64
f 12/5/12 11/6/11 16/7/16 15/8/15 
s 8
f 10/6/10 6/2/6 5/3/5 11/7/11 
f 12/8/12 1/4/1 4/1/4 9/5/9 
s 16
f 14/6/14 7/2/7 6/3/6 10/7/10 
f 9/8/9 4/4/4 3/1/3 13/5/13 
s 32
f 16/6/16 8/2/8 7/3/7 14/7/14 
f 13/8/13 3/4/3 2/1/2 15/5/15 
s 64
f 11/6/11 5/2/5 8/3/8 16/7/16 
f 15/8/15 2/4/2 1/1/1 12/5/12 
s 1
f 17/9/17 18/4/18 19/10/19 20/11/20 
f 20/11/20 19/10/19 21/1/21 22/12/22 
f 23/3/23 17/9/17 20/11/20 24/13/24 
f 24/13/24 20/11/20 22/12/22 25/2/25 
f 26/9/26 27/4/27 28/10/24 29/11/28 
f 29/11/28 28/10/24 30/1/29 31/12/30 
f 32/3/31 26/9/26 29/11/28 33/13/19 
f 33/13/19 29/11/28 31/12/30 34/2/32 
f 35/9/33 36/4/34 37/10/35 38/11/36 
f 38/11/36 37/10/35 39/1/37 40/12/38 
f 41/3/39 35/9/33 38/11/36 42/13/40 
f 42/13/40 38/11/36 40/12/38 43/2/41 
f 44/9/42 45/4/43 46/10/44 47/11/45 
f 47/11/45 46/10/44 48/1/46 49/12/47 
f 50/3/48 44/9/42 47/11/45 51/13/49 
f 51/13/49 47/11/45 49/12/47 52/2/50 
f 53/9/51 54/4/52 55/10/53 56/11/54 
f 56/11/54 55/10/53 57/1/55 58/12/56 
f 59/3/57 53/9/51 56/11/54 60/13/58 
f 60/13/58 56/11/54 58/12/56 61/2/59 
f 62/9/60 63/4/61 64/10/62 65/11/63 
f 65/11/63 64/10/62 66/1/64 67/12/65 
f 68/3/66 62/9/60 65/11/63 69/13/67 
f 69/13/67 65/11/63 67/12/65 70/2/68 
f 71/9/17 72/4/18 73/10/19 74/11/20 
f 74/11/20 73/10/19 75/1/21 76/12/22 
f 77/3/23 71/9/17 74/11/20 78/13/24 
f 78/13/24 74/11/20 76/12/22 79/2/25 
f 80/9/69 81/4/70 82/10/71 83/11/72 
f 83/11/72 82/10/71 84/1/73 85/12/74 
f 86/3/75 80/9/69 83/11/72 87/13/76 
f 87/13/76 83/11/72 85/12/74 88/2/77 
f 89/9/26 90/4/27 91/10/24 92/11/28 
f 92/11/28 91/10/24 93/1/29 94/12/30 
f 95/3/31 89/9/26 92/11/28 96/13/19 
f 96/13/19 92/11/28 94/12/30 97/2/32 
f 98/9/78 99/4/79 100/10/76 101/11/80 
f 101/11/80 100/10/76 102/1/81 103/12/82 
f 104/3/83 98/9/78 101/11/80 105/13/71 
f 105/13/71 101/11/80 103/12/82 106/2/84 
f 107/9/85 108/4/86 109/10/62 110/11/87 
f 110/11/87 109/10/62 111/1/88 112/12/89 
f 113/3/90 107/9/85 110/11/87 114/13/67 
f 114/13/67 110/11/87 112/12/89 115/2/91 
f 116/9/60 117/4/61 118/10/62 119/11/63 
f 119/11/63 118/10/62 120/1/64 121/12/65 
f 122/3/66 116/9/60 119/11/63 123/13/67 
f 123/13/67 119/11/63 121/12/65 124/2/68 
f 125/9/92 126/4/93 127/10/62 128/11/94 
f 128/11/94 127/10/62 129/1/95 130/12/96 
f 131/3/97 125/9/92 128/11/94 132/13/62 
f 132/13/62 128/11/94 130/12/96 133/2/98 
f 134/9/99 135/4/100 136/10/101 137/11/102 
f 137/11/102 136/10/101 138/1/103 139/12/104 
f 140/3/105 134/9/99 137/11/102 141/13/62 
f 141/13/62 137/11/102 139/12/104 142/2/106 
f 143/9/107 144/4/108 145/10/109 146/11/110 
f 146/11/110 145/10/109 147/1/111 148/12/112 
f 149/3/113 143/9/107 146/11/110 150/13/114 
f 150/13/114 146/11/110 148/12/112 151/2/115 
# 74 polygons

