# 3ds Max Wavefront OBJ Exporter v0.99 - (c)2007 guruware
# File Created: 27.04.2022 17:38:16

mtllib Windmill.mtl

#
# object Sphere001
#

v  -332.6390 30.9466 16.7968
v  -333.1005 30.9466 16.9945
v  -333.0387 31.1774 16.9945
v  -332.8698 31.3463 16.9945
v  -332.6390 31.4081 16.9945
v  -332.4082 31.3463 16.9945
v  -332.2393 31.1774 16.9945
v  -332.1774 30.9466 16.9945
v  -332.2393 30.7158 16.9945
v  -332.4082 30.5469 16.9945
v  -332.6390 30.4850 16.9945
v  -332.8698 30.5469 16.9945
v  -333.0387 30.7158 16.9945
v  -333.4384 30.9466 17.5347
v  -333.3313 31.3463 17.5347
v  -333.0387 31.6389 17.5347
v  -332.6390 31.7460 17.5347
v  -332.2393 31.6389 17.5347
v  -331.9467 31.3463 17.5347
v  -331.8395 30.9466 17.5347
v  -331.9467 30.5469 17.5347
v  -332.2393 30.2543 17.5347
v  -332.6390 30.1472 17.5347
v  -333.0387 30.2543 17.5347
v  -333.3313 30.5469 17.5347
v  -333.5621 30.9466 18.2727
v  -333.4384 31.4081 18.2727
v  -333.1005 31.7460 18.2727
v  -332.6390 31.8697 18.2727
v  -332.1774 31.7460 18.2727
v  -331.8395 31.4081 18.2727
v  -331.7159 30.9466 18.2727
v  -331.8395 30.4850 18.2727
v  -332.1774 30.1472 18.2727
v  -332.6390 30.0235 18.2727
v  -333.1005 30.1472 18.2727
v  -333.4384 30.4850 18.2727
v  -333.4384 30.9466 19.0106
v  -333.3313 31.3463 19.0106
v  -333.0387 31.6389 19.0106
v  -332.6390 31.7460 19.0106
v  -332.2393 31.6389 19.0106
v  -331.9467 31.3463 19.0106
v  -331.8395 30.9466 19.0106
v  -331.9467 30.5469 19.0106
v  -332.2393 30.2543 19.0106
v  -332.6390 30.1472 19.0106
v  -333.0387 30.2543 19.0106
v  -333.3313 30.5469 19.0106
v  -333.1005 30.9466 19.5508
v  -333.0387 31.1774 19.5508
v  -332.8698 31.3463 19.5508
v  -332.6390 31.4081 19.5508
v  -332.4082 31.3463 19.5508
v  -332.2393 31.1774 19.5508
v  -332.1774 30.9466 19.5508
v  -332.2393 30.7158 19.5508
v  -332.4082 30.5469 19.5508
v  -332.6390 30.4850 19.5508
v  -332.8698 30.5469 19.5508
v  -333.0387 30.7158 19.5508
v  -332.6390 30.9466 19.7485
# 62 vertices

vn -0.0000 0.0000 -1.0000
vn -0.5309 -0.0000 -0.8474
vn -0.4598 0.2655 -0.8474
vn -0.2654 0.4598 -0.8474
vn -0.0000 0.5309 -0.8474
vn 0.2654 0.4598 -0.8474
vn 0.4598 0.2655 -0.8474
vn 0.5309 0.0000 -0.8474
vn 0.4598 -0.2654 -0.8474
vn 0.2655 -0.4598 -0.8474
vn 0.0000 -0.5309 -0.8474
vn -0.2654 -0.4598 -0.8474
vn -0.4598 -0.2655 -0.8474
vn -0.8760 -0.0000 -0.4823
vn -0.7586 0.4380 -0.4823
vn -0.4380 0.7586 -0.4823
vn -0.0000 0.8760 -0.4823
vn 0.4380 0.7586 -0.4823
vn 0.7586 0.4380 -0.4823
vn 0.8760 0.0000 -0.4823
vn 0.7586 -0.4380 -0.4823
vn 0.4380 -0.7586 -0.4823
vn 0.0000 -0.8760 -0.4823
vn -0.4380 -0.7586 -0.4823
vn -0.7586 -0.4380 -0.4823
vn -1.0000 -0.0000 0.0000
vn -0.8660 0.5000 0.0000
vn -0.5000 0.8660 0.0000
vn -0.0000 1.0000 0.0000
vn 0.5000 0.8660 0.0000
vn 0.8660 0.5000 -0.0000
vn 1.0000 0.0000 -0.0000
vn 0.8660 -0.5000 -0.0000
vn 0.5000 -0.8660 -0.0000
vn 0.0000 -1.0000 -0.0000
vn -0.5000 -0.8660 -0.0000
vn -0.8660 -0.5000 0.0000
vn -0.8760 -0.0000 0.4823
vn -0.7586 0.4380 0.4823
vn -0.4380 0.7586 0.4823
vn -0.0000 0.8760 0.4823
vn 0.4380 0.7586 0.4823
vn 0.7586 0.4380 0.4823
vn 0.8760 0.0000 0.4823
vn 0.7586 -0.4380 0.4823
vn 0.4380 -0.7586 0.4823
vn 0.0000 -0.8760 0.4823
vn -0.4380 -0.7586 0.4823
vn -0.7586 -0.4380 0.4823
vn -0.5309 -0.0000 0.8474
vn -0.4598 0.2654 0.8474
vn -0.2654 0.4598 0.8474
vn -0.0000 0.5309 0.8474
vn 0.2654 0.4598 0.8474
vn 0.4598 0.2655 0.8474
vn 0.5309 0.0000 0.8474
vn 0.4598 -0.2654 0.8474
vn 0.2655 -0.4598 0.8474
vn 0.0000 -0.5309 0.8474
vn -0.2654 -0.4598 0.8474
vn -0.4598 -0.2655 0.8474
vn 0.0000 -0.0000 1.0000
# 62 vertex normals

vt 0.0000 1.0000 0.0000
vt 0.0000 0.8333 0.0000
vt 0.0833 0.8333 0.0000
vt 0.0833 1.0000 0.0000
vt 0.1667 0.8333 0.0000
vt 0.1667 1.0000 0.0000
vt 0.2500 0.8333 0.0000
vt 0.2500 1.0000 0.0000
vt 0.3333 0.8333 0.0000
vt 0.3333 1.0000 0.0000
vt 0.4167 0.8333 0.0000
vt 0.4167 1.0000 0.0000
vt 0.5000 0.8333 0.0000
vt 0.5000 1.0000 0.0000
vt 0.5833 0.8333 0.0000
vt 0.5833 1.0000 0.0000
vt 0.6667 0.8333 0.0000
vt 0.6667 1.0000 0.0000
vt 0.7500 0.8333 0.0000
vt 0.7500 1.0000 0.0000
vt 0.8333 0.8333 0.0000
vt 0.8333 1.0000 0.0000
vt 0.9167 0.8333 0.0000
vt 0.9167 1.0000 0.0000
vt 1.0000 0.8333 0.0000
vt 0.0000 0.6667 0.0000
vt 0.0833 0.6667 0.0000
vt 0.1667 0.6667 0.0000
vt 0.2500 0.6667 0.0000
vt 0.3333 0.6667 0.0000
vt 0.4167 0.6667 0.0000
vt 0.5000 0.6667 0.0000
vt 0.5833 0.6667 0.0000
vt 0.6667 0.6667 0.0000
vt 0.7500 0.6667 0.0000
vt 0.8333 0.6667 0.0000
vt 0.9167 0.6667 0.0000
vt 1.0000 0.6667 0.0000
vt 0.0000 0.5000 0.0000
vt 0.0833 0.5000 0.0000
vt 0.1667 0.5000 0.0000
vt 0.2500 0.5000 0.0000
vt 0.3333 0.5000 0.0000
vt 0.4167 0.5000 0.0000
vt 0.5000 0.5000 0.0000
vt 0.5833 0.5000 0.0000
vt 0.6667 0.5000 0.0000
vt 0.7500 0.5000 0.0000
vt 0.8333 0.5000 0.0000
vt 0.9167 0.5000 0.0000
vt 1.0000 0.5000 0.0000
vt 0.0000 0.3333 0.0000
vt 0.0833 0.3333 0.0000
vt 0.1667 0.3333 0.0000
vt 0.2500 0.3333 0.0000
vt 0.3333 0.3333 0.0000
vt 0.4167 0.3333 0.0000
vt 0.5000 0.3333 0.0000
vt 0.5833 0.3333 0.0000
vt 0.6667 0.3333 0.0000
vt 0.7500 0.3333 0.0000
vt 0.8333 0.3333 0.0000
vt 0.9167 0.3333 0.0000
vt 1.0000 0.3333 0.0000
vt 0.0000 0.1667 0.0000
vt 0.0833 0.1667 0.0000
vt 0.1667 0.1667 0.0000
vt 0.2500 0.1667 0.0000
vt 0.3333 0.1667 0.0000
vt 0.4167 0.1667 0.0000
vt 0.5000 0.1667 0.0000
vt 0.5833 0.1667 0.0000
vt 0.6667 0.1667 0.0000
vt 0.7500 0.1667 0.0000
vt 0.8333 0.1667 0.0000
vt 0.9167 0.1667 0.0000
vt 1.0000 0.1667 0.0000
vt 0.0000 0.0000 0.0000
vt 0.0833 0.0000 0.0000
vt 0.1667 0.0000 0.0000
vt 0.2500 0.0000 0.0000
vt 0.3333 0.0000 0.0000
vt 0.4167 0.0000 0.0000
vt 0.5000 0.0000 0.0000
vt 0.5833 0.0000 0.0000
vt 0.6667 0.0000 0.0000
vt 0.7500 0.0000 0.0000
vt 0.8333 0.0000 0.0000
vt 0.9167 0.0000 0.0000
# 89 texture coords

o Sphere001
g Sphere001
usemtl wire_086086086
s 1
f 1/1/1 2/2/2 3/3/3 
f 1/4/1 3/3/3 4/5/4 
f 1/6/1 4/5/4 5/7/5 
f 1/8/1 5/7/5 6/9/6 
f 1/10/1 6/9/6 7/11/7 
f 1/12/1 7/11/7 8/13/8 
f 1/14/1 8/13/8 9/15/9 
f 1/16/1 9/15/9 10/17/10 
f 1/18/1 10/17/10 11/19/11 
f 1/20/1 11/19/11 12/21/12 
f 1/22/1 12/21/12 13/23/13 
f 1/24/1 13/23/13 2/25/2 
f 2/2/2 14/26/14 15/27/15 3/3/3 
f 3/3/3 15/27/15 16/28/16 4/5/4 
f 4/5/4 16/28/16 17/29/17 5/7/5 
f 5/7/5 17/29/17 18/30/18 6/9/6 
f 6/9/6 18/30/18 19/31/19 7/11/7 
f 7/11/7 19/31/19 20/32/20 8/13/8 
f 8/13/8 20/32/20 21/33/21 9/15/9 
f 9/15/9 21/33/21 22/34/22 10/17/10 
f 10/17/10 22/34/22 23/35/23 11/19/11 
f 11/19/11 23/35/23 24/36/24 12/21/12 
f 12/21/12 24/36/24 25/37/25 13/23/13 
f 13/23/13 25/37/25 14/38/14 2/25/2 
f 14/26/14 26/39/26 27/40/27 15/27/15 
f 15/27/15 27/40/27 28/41/28 16/28/16 
f 16/28/16 28/41/28 29/42/29 17/29/17 
f 17/29/17 29/42/29 30/43/30 18/30/18 
f 18/30/18 30/43/30 31/44/31 19/31/19 
f 19/31/19 31/44/31 32/45/32 20/32/20 
f 20/32/20 32/45/32 33/46/33 21/33/21 
f 21/33/21 33/46/33 34/47/34 22/34/22 
f 22/34/22 34/47/34 35/48/35 23/35/23 
f 23/35/23 35/48/35 36/49/36 24/36/24 
f 24/36/24 36/49/36 37/50/37 25/37/25 
f 25/37/25 37/50/37 26/51/26 14/38/14 
f 26/39/26 38/52/38 39/53/39 27/40/27 
f 27/40/27 39/53/39 40/54/40 28/41/28 
f 28/41/28 40/54/40 41/55/41 29/42/29 
f 29/42/29 41/55/41 42/56/42 30/43/30 
f 30/43/30 42/56/42 43/57/43 31/44/31 
f 31/44/31 43/57/43 44/58/44 32/45/32 
f 32/45/32 44/58/44 45/59/45 33/46/33 
f 33/46/33 45/59/45 46/60/46 34/47/34 
f 34/47/34 46/60/46 47/61/47 35/48/35 
f 35/48/35 47/61/47 48/62/48 36/49/36 
f 36/49/36 48/62/48 49/63/49 37/50/37 
f 37/50/37 49/63/49 38/64/38 26/51/26 
f 38/52/38 50/65/50 51/66/51 39/53/39 
f 39/53/39 51/66/51 52/67/52 40/54/40 
f 40/54/40 52/67/52 53/68/53 41/55/41 
f 41/55/41 53/68/53 54/69/54 42/56/42 
f 42/56/42 54/69/54 55/70/55 43/57/43 
f 43/57/43 55/70/55 56/71/56 44/58/44 
f 44/58/44 56/71/56 57/72/57 45/59/45 
f 45/59/45 57/72/57 58/73/58 46/60/46 
f 46/60/46 58/73/58 59/74/59 47/61/47 
f 47/61/47 59/74/59 60/75/60 48/62/48 
f 48/62/48 60/75/60 61/76/61 49/63/49 
f 49/63/49 61/76/61 50/77/50 38/64/38 
f 62/78/62 51/66/51 50/65/50 
f 62/79/62 52/67/52 51/66/51 
f 62/80/62 53/68/53 52/67/52 
f 62/81/62 54/69/54 53/68/53 
f 62/82/62 55/70/55 54/69/54 
f 62/83/62 56/71/56 55/70/55 
f 62/84/62 57/72/57 56/71/56 
f 62/85/62 58/73/58 57/72/57 
f 62/86/62 59/74/59 58/73/58 
f 62/87/62 60/75/60 59/74/59 
f 62/88/62 61/76/61 60/75/60 
f 62/89/62 50/77/50 61/76/61 
# 48 polygons - 24 triangles

#
# object Box002
#

v  -320.8660 44.5057 18.8217
v  -322.6518 42.3963 18.8045
v  -322.9683 42.6619 18.2143
v  -321.1188 44.7179 18.3503
v  -324.4030 40.2579 18.8517
v  -324.7844 40.5779 18.1406
v  -326.1338 38.1023 18.9368
v  -326.5838 38.4799 18.0980
v  -327.7588 35.8580 19.2194
v  -328.4055 36.4006 18.0137
v  -329.3140 33.5550 19.6321
v  -330.2031 34.3011 17.9746
v  -331.4754 31.7608 18.9145
v  -331.8279 32.0565 18.2575
v  -321.0119 44.6282 18.9551
v  -321.2648 44.8404 18.4837
v  -323.1143 42.7844 18.3477
v  -322.7977 42.5188 18.9379
v  -324.9303 40.7004 18.2740
v  -324.5489 40.3803 18.9851
v  -326.7297 38.6023 18.2314
v  -326.2798 38.2248 19.0702
v  -328.5375 36.5114 18.1731
v  -327.9047 35.9804 19.3528
v  -330.3490 34.4235 18.1080
v  -329.4599 33.6775 19.7655
v  -331.9738 32.1790 18.3909
v  -331.6213 31.8833 19.0479
v  -332.2217 31.5872 18.2575
v  -331.8692 31.2915 18.9145
v  -332.0152 31.4139 19.0479
v  -332.3676 31.7097 18.3909
# 32 vertices

vn 0.9863 -0.0781 0.1453
vn 0.7601 -0.6281 0.1664
vn 0.1624 -0.0678 -0.9844
vn 0.5120 0.3556 -0.7819
vn 0.7757 -0.6081 0.1688
vn 0.1494 -0.0874 -0.9849
vn 0.8116 -0.5655 0.1468
vn 0.1571 -0.0908 -0.9834
vn 0.8539 -0.5002 0.1433
vn 0.1136 -0.0531 -0.9921
vn 0.6899 -0.6724 0.2682
vn 0.0688 -0.1384 -0.9880
vn 0.6587 -0.7485 0.0770
vn 0.1160 -0.1850 -0.9759
vn 0.2625 0.5292 0.8069
vn -0.2191 0.9691 -0.1136
vn -0.7189 0.6717 -0.1788
vn -0.1338 0.1219 0.9835
vn -0.7350 0.6547 -0.1766
vn -0.1155 0.1398 0.9834
vn -0.7383 0.6523 -0.1715
vn -0.0956 0.1957 0.9760
vn -0.7410 0.6599 -0.1244
vn -0.0460 0.2549 0.9659
vn -0.7837 0.5854 -0.2078
vn -0.1047 -0.0057 0.9945
vn -0.8001 0.5836 -0.1385
vn -0.2993 0.0553 0.9526
vn -0.2625 -0.5334 -0.8041
vn 0.2449 -0.9591 0.1418
vn -0.4797 -0.3511 0.8041
vn -0.9871 0.0746 -0.1418
# 32 vertex normals

vt 1.0000 0.0000 0.0000
vt 1.0000 0.1667 0.0000
vt 0.0000 0.1667 0.0000
vt 0.0000 0.0000 0.0000
vt 1.0000 0.3333 0.0000
vt 0.0000 0.3333 0.0000
vt 1.0000 0.5000 0.0000
vt 0.0000 0.5000 0.0000
vt 1.0000 0.6667 0.0000
vt 0.0000 0.6667 0.0000
vt 1.0000 0.8333 0.0000
vt 0.0000 0.8333 0.0000
vt 1.0000 1.0000 0.0000
vt 0.0000 1.0000 0.0000
vt 0.1667 0.0000 0.0000
vt 0.1667 1.0000 0.0000
vt 0.3333 0.0000 0.0000
vt 0.3333 1.0000 0.0000
vt 0.5000 0.0000 0.0000
vt 0.5000 1.0000 0.0000
vt 0.6667 0.0000 0.0000
vt 0.6667 1.0000 0.0000
vt 0.8333 0.0000 0.0000
vt 0.8333 1.0000 0.0000
# 24 texture coords

o Box002
g Box002
usemtl wire_086086086
s 2
f 63/90/63 64/91/64 65/92/65 66/93/66 
f 64/91/64 67/94/67 68/95/68 65/92/65 
f 67/94/67 69/96/69 70/97/70 68/95/68 
f 69/96/69 71/98/71 72/99/72 70/97/70 
f 71/98/71 73/100/73 74/101/74 72/99/72 
f 73/100/73 75/102/75 76/103/76 74/101/74 
s 4
f 77/93/77 78/90/78 79/91/79 80/92/80 
f 80/92/80 79/91/79 81/94/81 82/95/82 
f 82/95/82 81/94/81 83/96/83 84/97/84 
f 84/97/84 83/96/83 85/98/85 86/99/86 
f 86/99/86 85/98/85 87/100/87 88/101/88 
f 88/101/88 87/100/87 89/102/89 90/103/90 
s 8
f 63/93/63 66/90/66 78/102/78 77/103/77 
s 16
f 66/93/66 65/104/65 79/105/79 78/103/78 
f 65/104/65 68/106/68 81/107/81 79/105/79 
f 68/106/68 70/108/70 83/109/83 81/107/81 
f 70/108/70 72/110/72 85/111/85 83/109/83 
f 72/110/72 74/112/74 87/113/87 85/111/85 
f 74/112/74 76/90/76 89/102/89 87/113/87 
s 32
f 91/93/91 92/90/92 93/102/93 94/103/94 
s 64
f 75/93/75 73/104/73 88/105/88 90/103/90 
f 73/104/73 71/106/71 86/107/86 88/105/88 
f 71/106/71 69/108/69 84/109/84 86/107/86 
f 69/108/69 67/110/67 82/111/82 84/109/84 
f 67/110/67 64/112/64 80/113/80 82/111/82 
f 64/112/64 63/90/63 77/102/77 80/113/80 
s off
f 76/93/76 75/90/75 92/90/92 91/93/91 
f 75/90/75 90/102/90 93/102/93 92/90/92 
f 90/102/90 89/103/89 94/103/94 93/102/93 
f 89/103/89 76/93/76 91/93/91 94/103/94 
# 30 polygons

#
# object Box003
#

v  -328.3894 13.7396 20.9094
v  -329.0835 16.3935 20.5717
v  -328.8875 16.3624 19.8791
v  -328.2328 13.7147 20.3561
v  -329.7989 19.0508 20.3097
v  -329.5628 19.0133 19.4751
v  -330.5270 21.7102 20.0922
v  -330.2484 21.6659 19.1077
v  -331.3206 24.3799 20.1063
v  -330.9203 24.3163 18.6914
v  -332.1574 27.0565 20.2732
v  -331.6070 26.9690 18.3280
v  -332.6190 29.6735 19.1136
v  -332.4008 29.6388 18.3425
v  -328.1735 13.8035 20.9676
v  -328.0169 13.7786 20.4144
v  -328.6716 16.4262 19.9373
v  -328.8676 16.4574 20.6299
v  -329.3469 19.0772 19.5334
v  -329.5830 19.1147 20.3679
v  -330.0325 21.7298 19.1659
v  -330.3111 21.7740 20.1504
v  -330.7130 24.3815 18.7800
v  -331.1047 24.4438 20.1646
v  -331.3911 27.0329 18.3862
v  -331.9415 27.1204 20.3314
v  -332.1848 29.7027 18.4007
v  -332.4030 29.7374 19.1718
v  -332.5559 30.2273 18.2721
v  -332.7741 30.2620 19.0432
v  -332.5582 30.3259 19.1015
v  -332.3400 30.2912 18.3304
# 32 vertices

vn -0.5481 -0.6848 0.4803
vn -0.8503 -0.1724 0.4973
vn -0.4455 -0.2740 -0.8523
vn -0.2398 -0.7615 -0.6022
vn -0.8423 -0.1962 0.5021
vn -0.4540 -0.2521 -0.8546
vn -0.8351 -0.2539 0.4880
vn -0.4603 -0.2557 -0.8501
vn -0.8079 -0.3268 0.4904
vn -0.4101 -0.2467 -0.8780
vn -0.8155 -0.0717 0.5742
vn -0.4515 -0.1596 -0.8779
vn -0.9175 -0.0384 0.3958
vn -0.5096 -0.1653 -0.8444
vn 0.5227 -0.3680 0.7690
vn 0.8418 -0.4415 -0.3105
vn 0.8584 0.1117 -0.5007
vn 0.4722 0.2189 0.8539
vn 0.8544 0.1349 -0.5018
vn 0.4763 0.1939 0.8576
vn 0.8559 0.1399 -0.4979
vn 0.5071 0.1432 0.8499
vn 0.8779 0.1465 -0.4560
vn 0.5235 0.0671 0.8494
vn 0.8167 0.2085 -0.5380
vn 0.3600 0.2760 0.8912
vn 0.8457 0.2356 -0.4789
vn 0.4997 0.3809 0.7780
vn -0.5251 0.3710 -0.7659
vn -0.8392 0.4210 0.3442
vn 0.2328 0.7381 0.6332
vn 0.5469 0.6882 -0.4768
# 32 vertex normals

vt 1.0000 0.0000 0.0000
vt 1.0000 0.1667 0.0000
vt 0.0000 0.1667 0.0000
vt 0.0000 0.0000 0.0000
vt 1.0000 0.3333 0.0000
vt 0.0000 0.3333 0.0000
vt 1.0000 0.5000 0.0000
vt 0.0000 0.5000 0.0000
vt 1.0000 0.6667 0.0000
vt 0.0000 0.6667 0.0000
vt 1.0000 0.8333 0.0000
vt 0.0000 0.8333 0.0000
vt 1.0000 1.0000 0.0000
vt 0.0000 1.0000 0.0000
vt 0.1667 0.0000 0.0000
vt 0.1667 1.0000 0.0000
vt 0.3333 0.0000 0.0000
vt 0.3333 1.0000 0.0000
vt 0.5000 0.0000 0.0000
vt 0.5000 1.0000 0.0000
vt 0.6667 0.0000 0.0000
vt 0.6667 1.0000 0.0000
vt 0.8333 0.0000 0.0000
vt 0.8333 1.0000 0.0000
# 24 texture coords

o Box003
g Box003
usemtl wire_086086086
s 2
f 95/114/95 96/115/96 97/116/97 98/117/98 
f 96/115/96 99/118/99 100/119/100 97/116/97 
f 99/118/99 101/120/101 102/121/102 100/119/100 
f 101/120/101 103/122/103 104/123/104 102/121/102 
f 103/122/103 105/124/105 106/125/106 104/123/104 
f 105/124/105 107/126/107 108/127/108 106/125/106 
s 4
f 109/117/109 110/114/110 111/115/111 112/116/112 
f 112/116/112 111/115/111 113/118/113 114/119/114 
f 114/119/114 113/118/113 115/120/115 116/121/116 
f 116/121/116 115/120/115 117/122/117 118/123/118 
f 118/123/118 117/122/117 119/124/119 120/125/120 
f 120/125/120 119/124/119 121/126/121 122/127/122 
s 8
f 95/117/95 98/114/98 110/126/110 109/127/109 
s 16
f 98/117/98 97/128/97 111/129/111 110/127/110 
f 97/128/97 100/130/100 113/131/113 111/129/111 
f 100/130/100 102/132/102 115/133/115 113/131/113 
f 102/132/102 104/134/104 117/135/117 115/133/115 
f 104/134/104 106/136/106 119/137/119 117/135/117 
f 106/136/106 108/114/108 121/126/121 119/137/119 
s 32
f 123/117/123 124/114/124 125/126/125 126/127/126 
s 64
f 107/117/107 105/128/105 120/129/120 122/127/122 
f 105/128/105 103/130/103 118/131/118 120/129/120 
f 103/130/103 101/132/101 116/133/116 118/131/118 
f 101/132/101 99/134/99 114/135/114 116/133/116 
f 99/134/99 96/136/96 112/137/112 114/135/114 
f 96/136/96 95/114/95 109/126/109 112/137/112 
s off
f 108/117/108 107/114/107 124/114/124 123/117/123 
f 107/114/107 122/126/122 125/126/125 124/114/124 
f 122/126/122 121/127/121 126/127/126 125/126/125 
f 121/127/121 108/117/108 123/117/123 126/127/126 
# 30 polygons

#
# object Box004
#

v  -348.6086 38.5226 18.8217
v  -346.1089 37.3437 18.8045
v  -346.2835 36.9691 18.2143
v  -348.7481 38.2235 18.3503
v  -343.5901 36.2056 18.8517
v  -343.8005 35.7543 18.1406
v  -341.0600 35.0916 18.9368
v  -341.3082 34.5593 18.0980
v  -338.4715 34.1029 19.2194
v  -338.8283 33.3377 18.0137
v  -335.8445 33.1968 19.6321
v  -336.3351 32.1449 17.9746
v  -333.5520 31.5733 18.9145
v  -333.7465 31.1564 18.2575
v  -348.6891 38.3500 18.9551
v  -348.8286 38.0508 18.4837
v  -346.3640 36.7965 18.3477
v  -346.1894 37.1710 18.9379
v  -343.8810 35.5817 18.2740
v  -343.6706 36.0329 18.9851
v  -341.3887 34.3866 18.2314
v  -341.1405 34.9190 19.0702
v  -338.9012 33.1816 18.1731
v  -338.5520 33.9302 19.3528
v  -336.4156 31.9722 18.1080
v  -335.9250 33.0241 19.7655
v  -333.8270 30.9837 18.3909
v  -333.6325 31.4007 19.0479
v  -333.1912 30.8974 18.2575
v  -332.9968 31.3144 18.9145
v  -333.0773 31.1418 19.0479
v  -333.2717 30.7248 18.3909
# 32 vertices

vn -0.1798 0.9729 0.1453
vn 0.4100 0.8968 0.1664
vn 0.0234 0.1744 -0.9844
vn -0.4760 0.4026 -0.7819
vn 0.3866 0.9067 0.1688
vn 0.0457 0.1669 -0.9849
vn 0.3362 0.9303 0.1468
vn 0.0470 0.1752 -0.9834
vn 0.2622 0.9543 0.1433
vn 0.0219 0.1235 -0.9921
vn 0.4709 0.8404 0.2682
vn 0.1159 0.1023 -0.9880
vn 0.5525 0.8299 0.0770
vn 0.1487 0.1599 -0.9759
vn -0.5791 0.1166 0.8069
vn -0.8794 -0.4624 -0.1136
vn -0.4628 -0.8682 -0.1788
vn -0.0832 -0.1608 0.9835
vn -0.4422 -0.8794 -0.1766
vn -0.1051 -0.1477 0.9834
vn -0.4390 -0.8820 -0.1715
vn -0.1643 -0.1430 0.9760
vn -0.4456 -0.8865 -0.1244
vn -0.2343 -0.1104 0.9659
vn -0.3626 -0.9085 -0.2078
vn 0.0326 -0.0996 0.9945
vn -0.3567 -0.9239 -0.1385
vn 0.0240 -0.3034 0.9526
vn 0.5832 -0.1155 -0.8041
vn 0.8631 0.4848 0.1418
vn 0.4633 -0.3725 0.8041
vn 0.1834 -0.9728 -0.1418
# 32 vertex normals

vt 1.0000 0.0000 0.0000
vt 1.0000 0.1667 0.0000
vt 0.0000 0.1667 0.0000
vt 0.0000 0.0000 0.0000
vt 1.0000 0.3333 0.0000
vt 0.0000 0.3333 0.0000
vt 1.0000 0.5000 0.0000
vt 0.0000 0.5000 0.0000
vt 1.0000 0.6667 0.0000
vt 0.0000 0.6667 0.0000
vt 1.0000 0.8333 0.0000
vt 0.0000 0.8333 0.0000
vt 1.0000 1.0000 0.0000
vt 0.0000 1.0000 0.0000
vt 0.1667 0.0000 0.0000
vt 0.1667 1.0000 0.0000
vt 0.3333 0.0000 0.0000
vt 0.3333 1.0000 0.0000
vt 0.5000 0.0000 0.0000
vt 0.5000 1.0000 0.0000
vt 0.6667 0.0000 0.0000
vt 0.6667 1.0000 0.0000
vt 0.8333 0.0000 0.0000
vt 0.8333 1.0000 0.0000
# 24 texture coords

o Box004
g Box004
usemtl wire_086086086
s 2
f 127/138/127 128/139/128 129/140/129 130/141/130 
f 128/139/128 131/142/131 132/143/132 129/140/129 
f 131/142/131 133/144/133 134/145/134 132/143/132 
f 133/144/133 135/146/135 136/147/136 134/145/134 
f 135/146/135 137/148/137 138/149/138 136/147/136 
f 137/148/137 139/150/139 140/151/140 138/149/138 
s 4
f 141/141/141 142/138/142 143/139/143 144/140/144 
f 144/140/144 143/139/143 145/142/145 146/143/146 
f 146/143/146 145/142/145 147/144/147 148/145/148 
f 148/145/148 147/144/147 149/146/149 150/147/150 
f 150/147/150 149/146/149 151/148/151 152/149/152 
f 152/149/152 151/148/151 153/150/153 154/151/154 
s 8
f 127/141/127 130/138/130 142/150/142 141/151/141 
s 16
f 130/141/130 129/152/129 143/153/143 142/151/142 
f 129/152/129 132/154/132 145/155/145 143/153/143 
f 132/154/132 134/156/134 147/157/147 145/155/145 
f 134/156/134 136/158/136 149/159/149 147/157/147 
f 136/158/136 138/160/138 151/161/151 149/159/149 
f 138/160/138 140/138/140 153/150/153 151/161/151 
s 32
f 155/141/155 156/138/156 157/150/157 158/151/158 
s 64
f 139/141/139 137/152/137 152/153/152 154/151/154 
f 137/152/137 135/154/135 150/155/150 152/153/152 
f 135/154/135 133/156/133 148/157/148 150/155/150 
f 133/156/133 131/158/131 146/159/146 148/157/148 
f 131/158/131 128/160/128 144/161/144 146/159/146 
f 128/160/128 127/138/127 141/150/141 144/161/144 
s off
f 140/141/140 139/138/139 156/138/156 155/141/155 
f 139/138/139 154/150/154 157/150/157 156/138/156 
f 154/150/154 153/151/153 158/151/158 157/150/157 
f 153/151/153 140/141/140 155/141/155 158/151/158 
# 30 polygons

#
# object Box001
#

v  -331.4948 -0.7347 19.0565
v  -333.7668 -0.7347 19.0565
v  -333.7668 -0.7347 16.7845
v  -331.4948 -0.7347 16.7845
v  -332.2817 31.0738 18.2696
v  -332.2817 31.0738 17.5714
v  -332.9799 31.0738 17.5714
v  -332.9799 31.0738 18.2696
# 8 vertices

vn 0.5837 -0.5644 0.5837
vn -0.5837 -0.5644 0.5837
vn -0.5837 -0.5644 -0.5837
vn 0.5837 -0.5644 -0.5837
vn 0.5708 0.5903 0.5708
vn 0.5708 0.5903 -0.5708
vn -0.5708 0.5903 -0.5708
vn -0.5708 0.5903 0.5708
# 8 vertex normals

vt 1.0000 0.0000 0.0000
vt 1.0000 1.0000 0.0000
vt 0.0000 1.0000 0.0000
vt 0.0000 0.0000 0.0000
# 4 texture coords

o Box001
g Box001
usemtl wire_086086086
s 2
f 159/162/159 160/163/160 161/164/161 162/165/162 
s 4
f 163/165/163 164/162/164 165/163/165 166/164/166 
s 8
f 159/165/159 162/162/162 164/163/164 163/164/163 
s 16
f 162/165/162 161/162/161 165/163/165 164/164/164 
s 32
f 161/165/161 160/162/160 166/163/166 165/164/165 
s 64
f 160/165/160 159/162/159 163/163/163 166/164/166 
# 6 polygons

